<svg width="22" height="22" viewBox="0 0 22 22" fill="none" xmlns="http://www.w3.org/2000/svg">
<g clip-path="url(#clip0_38_1465)">
<path fill-rule="evenodd" clip-rule="evenodd" d="M5.6228 5.15271H17.6228C18.7274 5.15271 19.6228 6.04814 19.6228 7.15271V19.1527C19.6228 20.2573 18.7274 21.1527 17.6228 21.1527H5.6228C4.51823 21.1527 3.6228 20.2573 3.6228 19.1527V7.15271C3.6228 6.04814 4.51823 5.15271 5.6228 5.15271Z" stroke="black" stroke-linecap="round" stroke-linejoin="round"/>
<path d="M3.6228 9.15271H19.6228" stroke="black" stroke-linecap="round" stroke-linejoin="round"/>
<path d="M11.6228 14.1527C12.1751 14.1527 12.6228 13.705 12.6228 13.1527C12.6228 12.6004 12.1751 12.1527 11.6228 12.1527C11.0705 12.1527 10.6228 12.6004 10.6228 13.1527C10.6228 13.705 11.0705 14.1527 11.6228 14.1527Z" fill="black"/>
<path d="M7.6228 14.1527C8.17509 14.1527 8.6228 13.705 8.6228 13.1527C8.6228 12.6004 8.17509 12.1527 7.6228 12.1527C7.07052 12.1527 6.6228 12.6004 6.6228 13.1527C6.6228 13.705 7.07052 14.1527 7.6228 14.1527Z" fill="black"/>
<path d="M15.6228 14.1527C16.1751 14.1527 16.6228 13.705 16.6228 13.1527C16.6228 12.6004 16.1751 12.1527 15.6228 12.1527C15.0705 12.1527 14.6228 12.6004 14.6228 13.1527C14.6228 13.705 15.0705 14.1527 15.6228 14.1527Z" fill="black"/>
<path d="M11.6228 18.1527C12.1751 18.1527 12.6228 17.705 12.6228 17.1527C12.6228 16.6004 12.1751 16.1527 11.6228 16.1527C11.0705 16.1527 10.6228 16.6004 10.6228 17.1527C10.6228 17.705 11.0705 18.1527 11.6228 18.1527Z" fill="black"/>
<path d="M7.6228 18.1527C8.17509 18.1527 8.6228 17.705 8.6228 17.1527C8.6228 16.6004 8.17509 16.1527 7.6228 16.1527C7.07052 16.1527 6.6228 16.6004 6.6228 17.1527C6.6228 17.705 7.07052 18.1527 7.6228 18.1527Z" fill="black"/>
<path d="M15.6228 18.1527C16.1751 18.1527 16.6228 17.705 16.6228 17.1527C16.6228 16.6004 16.1751 16.1527 15.6228 16.1527C15.0705 16.1527 14.6228 16.6004 14.6228 17.1527C14.6228 17.705 15.0705 18.1527 15.6228 18.1527Z" fill="black"/>
</g>
<defs>
<clipPath id="clip0_38_1465">
<rect width="21" height="21" fill="white" transform="translate(0.622803 0.15271)"/>
</clipPath>
</defs>
</svg>
