<svg width="24" height="24" viewBox="0 0 24 24" fill="none" xmlns="http://www.w3.org/2000/svg">
<path d="M9 6C8.57861 6 7.91194 6 7 6C6.44772 6 6 6.44772 6 7V18C6 18.5523 6.44772 19 7 19H17C17.5523 19 18 18.5523 18 18V7C18 6.44772 17.5523 6 17 6C16.1111 6 15.4444 6 15 6" stroke="#121212" stroke-linecap="round" stroke-linejoin="round"/>
<path fill-rule="evenodd" clip-rule="evenodd" d="M10 5H14C14.5523 5 15 5.44772 15 6C15 6.55228 14.5523 7 14 7H10C9.44772 7 9 6.55228 9 6C9 5.44772 9.44772 5 10 5Z" stroke="#121212" stroke-linecap="round" stroke-linejoin="round"/>
<path d="M9 13L11 15L16 10" stroke="black" stroke-linecap="round" stroke-linejoin="round"/>
</svg>
