<svg width="22" height="22" viewBox="0 0 22 22" fill="none" xmlns="http://www.w3.org/2000/svg">
<mask id="mask0_183_2867" style="mask-type:alpha" maskUnits="userSpaceOnUse" x="-1" y="-2" width="24" height="24">
<rect x="-1" y="-2" width="24" height="24" fill="#D9D9D9"/>
</mask>
<g mask="url(#mask0_183_2867)">
<path d="M7.99995 19V16H6.99995C6.44995 16 5.97928 15.8043 5.58795 15.413C5.19595 15.021 4.99995 14.55 4.99995 14V12H3.99995C3.61662 12 3.33328 11.8333 3.14995 11.5C2.96662 11.1667 2.96662 10.8333 3.14995 10.5L5.12495 7C5.25828 5.25 5.99595 3.81267 7.33795 2.688C8.67928 1.56267 10.2333 1 12 1C13.95 1 15.604 1.679 16.962 3.037C18.3206 4.39567 19 6.05 19 8C19 9.35 18.6376 10.5957 17.913 11.737C17.1876 12.879 16.2166 13.75 15 14.35V19H7.99995ZM11 12H13L13.15 10.75C13.2833 10.7 13.4043 10.6417 13.513 10.575C13.621 10.5083 13.7166 10.4333 13.8 10.35L14.95 10.85L15.95 9.15L14.95 8.4C14.9833 8.26667 15 8.13333 15 8C15 7.86667 14.9833 7.73333 14.95 7.6L15.95 6.85L14.95 5.15L13.8 5.65C13.7166 5.56667 13.621 5.49167 13.513 5.425C13.4043 5.35833 13.2833 5.3 13.15 5.25L13 4H11L10.85 5.25C10.7166 5.3 10.596 5.35833 10.488 5.425C10.3793 5.49167 10.2833 5.56667 10.2 5.65L9.04995 5.15L8.04995 6.85L9.04995 7.6C9.01662 7.73333 8.99995 7.86667 8.99995 8C8.99995 8.13333 9.01662 8.26667 9.04995 8.4L8.04995 9.15L9.04995 10.85L10.2 10.35C10.2833 10.4333 10.3793 10.5083 10.488 10.575C10.596 10.6417 10.7166 10.7 10.85 10.75L11 12ZM12 9.5C11.5833 9.5 11.2293 9.354 10.938 9.062C10.646 8.77067 10.5 8.41667 10.5 8C10.5 7.58333 10.646 7.22933 10.938 6.938C11.2293 6.646 11.5833 6.5 12 6.5C12.4166 6.5 12.7706 6.646 13.062 6.938C13.354 7.22933 13.5 7.58333 13.5 8C13.5 8.41667 13.354 8.77067 13.062 9.062C12.7706 9.354 12.4166 9.5 12 9.5ZM9.99995 17H13V13.05L13.9 12.65C14.8333 12.2333 15.5833 11.6083 16.15 10.775C16.7166 9.94167 17 9.01667 17 8C17 6.61667 16.5126 5.43767 15.538 4.463C14.5626 3.48767 13.3833 3 12 3C10.6666 3 9.52062 3.45833 8.56195 4.375C7.60395 5.29167 7.08328 6.425 6.99995 7.775L5.72495 10H6.99995V14H9.99995V17Z" fill="#1C1B1F"/>
</g>
</svg>
